<?xml version="1.0" encoding="UTF-8"?>
<svg xmlns="http://www.w3.org/2000/svg" viewBox="0 0 64 64" width="512" height="512"><g id="email-love-heart-hand-letter"><path d="M60.17,51.05l.65-.98A7,7,0,0,0,62,46.18V32.48a8.942,8.942,0,0,0-2.64-6.36L54,20.76V11a3,3,0,0,0-3-3H5a3.009,3.009,0,0,0-3,3V39a3.009,3.009,0,0,0,3,3H40.87a10.878,10.878,0,0,0,1.73,7.69l.4.61V52H41a1,1,0,0,0-1,1v8a1,1,0,0,0,1,1H61a1,1,0,0,0,1-1V53a1,1,0,0,0-1-1H60v-.39A1,1,0,0,1,60.17,51.05ZM52,11.01V26.84l-2.65-2.65a4.092,4.092,0,0,0-5.66.01,4.026,4.026,0,0,0,0,5.66l4.64,4.64a6.823,6.823,0,0,0-.69,1.41L35.92,27.46a4.964,4.964,0,0,0,1.32-3.36,4.766,4.766,0,0,0-.3-1.64ZM50.02,10,35.91,20.73c-.05-.06-.08-.12-.13-.17a5.034,5.034,0,0,0-7.08,0l-.7.71-.71-.71a5.022,5.022,0,0,0-7.07,0c-.05.05-.08.11-.13.17L5.97,10ZM35.24,24.1a2.956,2.956,0,0,1-.88,2.12L28,32.59l-6.36-6.37a3,3,0,1,1,4.24-4.24l1.41,1.41a1.008,1.008,0,0,0,1.42,0l1.41-1.41a3,3,0,0,1,4.24,0A2.956,2.956,0,0,1,35.24,24.1ZM4.01,39.04c0-.01-.01-.03-.01-.04V11.02L19.06,22.46a4.766,4.766,0,0,0-.3,1.64,4.964,4.964,0,0,0,1.32,3.36ZM6.1,40,21.49,28.91l5.8,5.8a1.014,1.014,0,0,0,1.42,0l5.8-5.8,12.67,9.13A7.146,7.146,0,0,0,47.32,40ZM60,60H42V54H60Zm-.84-11.04-.65.98A2.966,2.966,0,0,0,58,51.62V52H45V50a.967.967,0,0,0-.17-.55l-.57-.87A8.861,8.861,0,0,1,42.91,42h5.15a7.911,7.911,0,0,0,.69,1.05l.47.58A1.02,1.02,0,0,0,50,44a1,1,0,0,0,.78-1.63l-.47-.57a5.308,5.308,0,0,1,.1-6.75,1,1,0,0,0-.05-1.36l-5.25-5.24a2.025,2.025,0,0,1-.01-2.84,2.074,2.074,0,0,1,2.84,0l7.07,7.07a1,1,0,0,0,1.42-1.42L54,28.84V23.58l3.95,3.95A6.977,6.977,0,0,1,60,32.48v13.7A5.016,5.016,0,0,1,59.16,48.96Z"/></g></svg>
