<svg id="Layer_1" enable-background="new 0 0 510.489 510.489" height="512" viewBox="0 0 510.489 510.489" width="512" xmlns="http://www.w3.org/2000/svg"><g><ellipse cx="166.84" cy="46.323" rx="41.63" ry="41.63" transform="matrix(.987 -.16 .16 .987 -5.266 27.323)"/><path d="m206.31 212.648-11.136 3.956c-10.453 3.714-15.916 15.199-12.203 25.652 3.696 10.402 15.15 15.933 25.653 12.203l26.645-9.467-21.29-20.251c-3.639-3.462-6.197-7.634-7.669-12.093z"/><path d="m158.212 101.326c-1.958 0-3.437 1.828-3.081 3.754l2.565 13.895c.274 1.486 1.57 2.564 3.081 2.564h10.449c1.511 0 2.807-1.078 3.081-2.564l2.565-13.895c.356-1.926-1.123-3.754-3.081-3.754z"/><path d="m231.337 176.256-12.113 14.251c-6.649 7.823-6.009 19.484 1.457 26.531l46.555 43.947c7.748 7.315 19.962 6.967 27.28-.786 7.316-7.75 6.964-19.964-.786-27.28l-33.234-31.373.044-.051z"/><path d="m343.114 135.444c-1.729 0-3.131 1.402-3.131 3.131s1.402 3.131 3.131 3.131 3.131-1.402 3.131-3.131c0-1.73-1.402-3.131-3.131-3.131z"/><circle cx="360.289" cy="157.584" r="3.131"/><path d="m332.388 157.584c-1.729 0-3.131 1.402-3.131 3.131s1.402 3.131 3.131 3.131 3.131-1.402 3.131-3.131-1.401-3.131-3.131-3.131z"/><ellipse cx="346.764" cy="64.057" rx="39.996" ry="39.996" transform="matrix(.707 -.707 .707 .707 56.27 263.961)"/><path d="m444.78 224.168c-3.59-9.947-19.267-53.845-24.166-68.102-.697-2.028-1.436-3.966-2.206-5.837l-7.102-90.597c-1.29-16.284-8.607-31.356-20.605-42.441s-27.603-17.191-43.937-17.191-31.938 6.105-43.936 17.19c-11.985 11.073-19.299 26.126-20.602 42.389l-5.989 64.382.149-.097 17.942 38.086c1.922-1.802 4.103-3.261 6.462-4.342l-5.64 35.077-29.937-61.558.046-.03c-10.496-18.028-30.062-29.77-51.87-29.77h-18.8s-6.475 38.733-20.845 49.666l2.155-10.233c.071-.338.073-.686.007-1.025l-2.531-12.864c-.237-1.205-1.293-2.073-2.521-2.073h-9.705c-1.228 0-2.284.869-2.521 2.073l-2.531 12.864c-.067.339-.064.687.007 1.025l2.154 10.234c-14.369-10.933-20.845-49.666-20.845-49.666h-24.493c-26.531 0-48.223 21.113-48.354 47.192v147.189c0 10.891 8.469 20.167 19.353 20.555 11.427.407 20.819-8.737 20.819-20.074v-147.498c.038-3.822 3.929-7.297 8.181-7.297h.488v152.323h.019v192.124c0 13.513 11.059 24.898 24.57 24.642 13.097-.248 23.638-10.943 23.638-24.099v-192.666h10.408v192.123c0 13.513 11.059 24.898 24.57 24.642 13.097-.248 23.638-10.943 23.638-24.099-.002-7.703-.043-195.621-.05-223.459l-7.609 2.703c-16.779 5.961-35.29-2.947-40.989-19.975-5.561-16.615 3.735-34.585 20.245-40.451l13.111-4.658c.607-6.335 3.252-12.521 7.978-17.489l7.157-8.914-.021-32.313c.005-.001.01-.002.015-.003.886-.161 1.788.169 2.292.916l16.648 26.234 60.994 56.223c11.559 10.995 12.761 29.312 2.193 41.263-5.482 6.2-12.933 9.522-20.525 9.928l-17.815 110.797c-.379 2.358-.09 4.81 1.012 6.929 1.881 3.617 5.579 5.81 9.524 5.81h21.038v86.882c0 12.984 10.625 23.922 23.606 23.675 12.583-.239 22.709-10.514 22.709-23.153v-87.403h9.998v86.882c0 12.984 10.625 23.922 23.606 23.675 12.583-.239 22.709-10.514 22.709-23.153v-87.403h20.727c2.407 0 4.799-.685 6.724-2.129 3.258-2.442 4.795-6.425 4.171-10.307l-19.751-122.852-51.955 11.652c-15.958 3.577-31.674-6.495-35.222-22.317-2.701-12.044 2.39-24.014 11.93-30.657l-14.748-42.119c-1.119-3.196 1.253-6.539 4.639-6.539h44.346c3.386 0 5.758 3.343 4.639 6.539l-11.842 33.82 28.666-6.46-.901-24.546s7.973 22.485 11.592 32.619l-53.775 12.06c-10.379 2.327-16.944 12.633-14.607 23.053 2.321 10.348 12.604 16.95 23.053 14.607l75.076-16.838c11.316-2.537 17.859-14.429 13.942-25.346zm-104.857-59.103c2.038 4.765-4.427 8.498-7.535 4.35-3.108 4.147-9.573.415-7.535-4.35-5.146-.618-5.146-8.083 0-8.7-2.038-4.765 4.427-8.498 7.535-4.35 3.108-4.147 9.573-.415 7.535 4.35 5.146.617 5.146 8.082 0 8.7zm7.639-18.787c-.632 5.261-8.264 5.261-8.895 0-4.872 2.084-8.688-4.526-4.448-7.704-4.24-3.177-.424-9.787 4.448-7.704.632-5.261 8.264-5.261 8.895 0 4.872-2.084 8.688 4.526 4.448 7.704 4.24 3.178.424 9.788-4.448 7.704zm17.077 18.841c-.618 5.146-8.083 5.146-8.701 0-4.765 2.038-8.498-4.427-4.35-7.535-4.147-3.108-.415-9.573 4.35-7.535.618-5.146 8.083-5.146 8.701 0 4.765-2.038 8.498 4.427 4.35 7.535 4.148 3.108.415 9.573-4.35 7.535zm11.354-48.318h-65.047c-6.517 0-12.868 1.007-18.896 2.893l5.464-58.746.01-.105c2.02-25.511 23.65-45.495 49.241-45.495s47.22 19.984 49.241 45.495l5.109 64.502c-7.126-5.681-15.513-8.544-25.122-8.544z"/></g></svg>